<svg xmlns="http://www.w3.org/2000/svg" viewBox="0 0 416 512"><defs><style>.cls-1{fill:#e2dcdc;}.cls-2{fill:#cec3c0;}.cls-3{fill:#00ddc1;}.cls-4{fill:#002c3c;}.cls-5{fill:#be003b;}</style></defs><title>ballot</title><g id="Ebene_2" data-name="Ebene 2"><g id="Capa_1" data-name="Capa 1"><path class="cls-1" d="M379.59,512H36.41A36.41,36.41,0,0,1,0,475.59V36.41A36.41,36.41,0,0,1,36.41,0H379.59A36.41,36.41,0,0,1,416,36.41V475.59A36.41,36.41,0,0,1,379.59,512Z"/><path class="cls-2" d="M376.83,0H208V512H376.83A39.17,39.17,0,0,0,416,472.83V39.17A39.17,39.17,0,0,0,376.83,0Z"/><path class="cls-3" d="M154,169H75a15,15,0,0,1-15-15V75A15,15,0,0,1,75,60h79a15,15,0,0,1,15,15v79A15,15,0,0,1,154,169ZM90,139h49V90H90Z"/><path class="cls-3" d="M154,310.5H75a15,15,0,0,1-15-15v-79a15,15,0,0,1,15-15h79a15,15,0,0,1,15,15v79A15,15,0,0,1,154,310.5Zm-64-30h49v-49H90Z"/><path class="cls-3" d="M154,452H75a15,15,0,0,1-15-15V358a15,15,0,0,1,15-15h79a15,15,0,0,1,15,15v79A15,15,0,0,1,154,452ZM90,422h49V373H90Z"/><path class="cls-4" d="M341,99.5H229a15,15,0,0,1,0-30H341a15,15,0,0,1,0,30Z"/><path class="cls-4" d="M311.35,159.5H229a15,15,0,0,1,0-30h82.35a15,15,0,0,1,0,30Z"/><path class="cls-4" d="M341,241H229a15,15,0,0,1,0-30H341a15,15,0,0,1,0,30Z"/><path class="cls-4" d="M311.35,301H229a15,15,0,0,1,0-30h82.35a15,15,0,0,1,0,30Z"/><path class="cls-4" d="M341,382.5H229a15,15,0,0,1,0-30H341a15,15,0,0,1,0,30Z"/><path class="cls-4" d="M311.35,442.5H229a15,15,0,0,1,0-30h82.35a15,15,0,0,1,0,30Z"/><path class="cls-5" d="M124.58,277.39a15.22,15.22,0,0,1-10.81-4.48L102.86,262a15.29,15.29,0,0,1,21.63-21.63l.09.09,43.61-43.61a15.29,15.29,0,0,1,21.63,21.63L135.4,272.91A15.26,15.26,0,0,1,124.58,277.39Z"/></g></g></svg>