<svg xmlns="http://www.w3.org/2000/svg" viewBox="0 0 480.81 511"><defs><style>.cls-1{fill:#fff1be;}.cls-2{fill:#ffdf7b;}.cls-3{fill:#f50;}.cls-4{fill:#ffd84b;}.cls-5{fill:#ffc200;}.cls-6{fill:#ff7225;}</style></defs><title>beer</title><g id="Ebene_2" data-name="Ebene 2"><g id="Ebene_1-2" data-name="Ebene 1"><path class="cls-1" d="M270.15,40.17c-35.68-53.56-114.84-53.56-150.56,0C64.93,12.11,0,52.06,0,113.16a81.75,81.75,0,0,0,32.76,65.6h324c7.42-4.24,33-27.53,33-65.6C389.75,52,324.75,12.14,270.15,40.17Z"/><path class="cls-2" d="M270.15,40.17A89.68,89.68,0,0,0,196.37,0V178.76h160.4c7.43-4.22,33-27.57,33-65.6C389.75,52,324.76,12.14,270.15,40.17Z"/><path class="cls-3" d="M480.81,206.7v99.77a54.94,54.94,0,0,1-54.89,54.87c-70.79,0-66.15.21-68.87-.53V332c2.73-.75-1.87-.54,68.87-.54a25,25,0,0,0,24.95-24.94V206.7a25,25,0,0,0-24.95-24.95H356.05v-15a10,10,0,0,0-8-9.78v-5.19h77.85A55,55,0,0,1,480.81,206.7Z"/><path class="cls-4" d="M306.15,511H86.58a54.94,54.94,0,0,1-54.89-54.87V166.79a15,15,0,0,1,15-15H346.07a15,15,0,0,1,15,15V456.13A54.94,54.94,0,0,1,306.15,511Z"/><path class="cls-5" d="M346.07,151.82H196.37V511H306.15A54.94,54.94,0,0,0,361,456.13V166.79A15,15,0,0,0,346.07,151.82Z"/><path class="cls-6" d="M31.69,456.13A54.94,54.94,0,0,0,86.58,511H306.15A54.94,54.94,0,0,0,361,456.13v-20H31.69Z"/><path class="cls-3" d="M361,436.17v20A54.94,54.94,0,0,1,306.15,511H196.37V436.17Z"/><path class="cls-6" d="M361,226.65V166.79a15,15,0,0,0-15-15H46.66a15,15,0,0,0-15,15v59.86Z"/><path class="cls-3" d="M361,166.79v59.86H196.37V151.82h149.7A15,15,0,0,1,361,166.79Z"/><path class="cls-1" d="M106.54,391.27a15,15,0,0,1-15-15v-89.8a15,15,0,0,1,29.94,0v89.8A15,15,0,0,1,106.54,391.27Z"/><path class="cls-1" d="M166.42,391.27a15,15,0,0,1-15-15V315.45a15,15,0,0,1,30,0v60.86A15,15,0,0,1,166.42,391.27Z"/><path class="cls-2" d="M226.31,391.27a15,15,0,0,1-15-15v-89.8a15,15,0,0,1,29.94,0v89.8A15,15,0,0,1,226.31,391.27Z"/><path class="cls-2" d="M286.19,391.27a15,15,0,0,1-15-15v-89.8a15,15,0,0,1,29.94,0v89.8A15,15,0,0,1,286.19,391.27Z"/><path class="cls-1" d="M120.51,148.83v76.82a44.92,44.92,0,0,0,89.83,0V148.83Z"/><path class="cls-2" d="M196.37,148.83V258.16a44.76,44.76,0,0,0,14-32.5V148.83Z"/></g></g></svg>