<svg xmlns="http://www.w3.org/2000/svg" viewBox="0 0 1304.88 1026.37"><defs><style>.cls-1{fill:#fff;}</style></defs><title>logo</title><g id="Ebene_2" data-name="Ebene 2"><g id="Ebene_1-2" data-name="Ebene 1"><path class="cls-1" d="M749.31,423.08H546.17c0-4.42,0-8.85,0-13.27-.08-32-.09-63.95-.27-95.93C545.74,286.17,553,260,562,234.18c15.43-43.86,31.26-87.59,45.45-131.85,4.65-14.49,4.74-30.44,6.89-45.73.11-.8.24-2-.2-2.42-5.71-5.73-3.55-12.4-2.85-19.16.88-8.52,1-17.13,1.1-25.71.07-6.51,1.8-9.28,8.18-9.3,20-.06,39.95.17,59.92.5A6.75,6.75,0,0,1,687,9.67c-2.83,8.81-.22,17.17,1,25.65.89,6.26,1.69,12-1.8,18.19-2,3.45-1.4,8.66-1.08,13,2.35,31.72,13.24,61.18,24,90.7,11.57,31.66,23,63.37,33.77,95.32,5.47,16.31,6.18,33.35,6.07,50.71-.2,29.08-2.93,58.19.18,87.33C750.25,401.1,749.31,411.84,749.31,423.08ZM732.24,252.41c-1-4.54-1.54-8.33-2.65-11.95q-17.31-56.09-34.76-112.11C691,116.16,687.26,104,683.35,91.83c-.3-.94-1.62-1.54-2.47-2.3-.25,1-.86,2-.71,2.86,1.13,6.86,1.9,13.85,3.74,20.52,10,36.44,20.17,72.84,30.66,109.15,3.11,10.75,7.35,21.19,11.38,31.66.48,1.25,2.91,1.75,4.43,2.6C731.07,254.88,731.75,253.43,732.24,252.41Zm-165.58.73C579,240.38,618,112.83,614.67,97.35,599.86,150,580.2,200.63,566.66,253.14ZM684.43,36.2c-1.09-6.12-2.1-11.77-3.11-17.37-3-.92-4.4-.09-3.78,3,1,5,2.1,10,3.17,15Z"/><path class="cls-1" d="M1228.24,287.5c-7.92,9.83-16.13,19.43-23.7,29.52-22.19,29.56-43.31,59.86-61.41,92.15a68.29,68.29,0,0,0-5,10.81c-.94,2.69-2.28,3.44-5,3.41-14.16-.13-28.33-.06-42.49-.06H842.81c7-5.59,12.71-10.33,18.62-14.79,25.38-19.16,51-38,76.17-57.44,16.3-12.62,32.32-25.68,47.71-39.39,18.57-16.55,40.25-26.72,63.51-34.45q54.6-18.17,109-37a222.78,222.78,0,0,0,55.77-28.61c3.19-2.25,5.21-6.14,7.8-9.25,1.84-2.22,3.37-4.94,5.66-6.51,4.66-3.18,9.94-5.45,14.6-8.63a67.27,67.27,0,0,0,10.87-9.27c4.9-5.18,9.32-5.67,13.79-.2q18.35,22.42,36.3,45.17c3.75,4.75,2.93,9.19-2.24,12.15a72.52,72.52,0,0,0-21.51,19.11c-3.51,4.55-7.7,7.65-13.81,7.51-1.08,0-2.39,1-3.25,1.84-14.15,14.29-29,27.8-39.71,45.29-21.78,35.64-44.49,70.7-66.21,106.37-4.38,7.19-9,9.74-16.15,7.85l89.8-134.69Zm-32.59-53.6c-.24-1.06-.47-2.11-.7-3.16a32.71,32.71,0,0,0-5.57,1.12q-60.14,23.28-120.19,46.74c-11.1,4.37-21.89,9.5-32.82,14.3-3.54,1.55-3.65,3.75-.71,7.08,5.95-1.68,12.37-2.84,18.26-5.29q51-21.19,101.85-42.95C1169.16,246,1182.36,239.86,1195.65,233.9Zm38.68-38.28c2.64,3.36,8,1.64,17.91-6-1.42-.85-3.26-1.75-4.42-1.21C1243.35,190.46,1239.1,193,1234.33,195.62Z"/><path class="cls-1" d="M461.18,423.15H169.09C143.33,374.19,111.8,330,77,288l-1.29.88L165.35,423.3c-2.72,0-6,.41-9.21-.17-1.55-.28-3.14-2.16-4.1-3.7-15.56-25-30.92-50.14-46.55-75.1-9.36-14.94-18.22-30.34-29-44.24C66.19,286.72,53.73,275,42.16,262.61a3.1,3.1,0,0,0-2.11-1.06c-6.66.61-10.85-3.23-14.5-8a71.11,71.11,0,0,0-20.82-18.4c-5.38-3.11-6.22-7.53-2.28-12.49q18-22.71,36.32-45.16c4-4.87,8.8-5.38,12.24-.71,5.62,7.63,13.78,11.34,21.56,15.68C78.06,195.58,83,198.72,85,205.3c.68,2.24,3.15,4.21,5.24,5.7,24.56,17.42,52.24,28.11,80.58,37.52q51.52,17.1,102.74,35.17c17.72,6.29,32.75,17.12,47.29,29.14,24.74,20.43,49.17,41.25,75.57,59.69,21.82,15.23,42.24,32.46,63.27,48.82A14.29,14.29,0,0,1,461.18,423.15ZM269.9,299.26c2.36-3,1.76-4.92-1.4-6.41-4.34-2.05-8.47-4.61-12.93-6.37-25.62-10.11-51.3-20.06-77-30.07-21.33-8.31-42.64-16.66-64-24.89-1.43-.55-3.2-.25-4.81-.34l-.26,2c6.59,3.45,13,7.34,19.82,10.26q49.22,21.07,98.64,41.63C241.54,290.66,254.37,298.62,269.9,299.26ZM52.68,190.92c4.54,2.25,9,4.66,13.72,6.68,1,.44,2.59-.51,3.9-.82-4.48-3.74-8.74-5.95-12.85-8.4C54.55,186.66,53.24,187.52,52.68,190.92Z"/><path class="cls-1" d="M917.16,626.32l-44.34,35.44c-19.77,15.81-39.37,31.85-59.44,47.27A47.65,47.65,0,0,1,796,717.17c-9.45,2.29-18-1-25.3-7.52-5.43-4.86-11-9.62-16.64-14.61a5.44,5.44,0,0,0-.58,1.47C753,711,752,711.69,739,717.44c-16,7.1-33,7.7-49.92,7.85-27.13.24-54.28,0-81.38-1-12.54-.49-25-3.21-37.44-5.44-11.41-2-19.07-9-23-20.38C543,702,539,705.32,535,708.76c-12.68,11.07-26.78,12.37-40.56,2.5-12.71-9.1-24.81-19.07-37-28.84-22.11-17.67-44.12-35.49-66.17-53.25-.89-.71-1.72-1.48-3.3-2.85Z"/><path class="cls-1" d="M750.71,464.84V495c4.55-3.49,8.33-6.34,12.07-9.25,8.14-6.35,16.19-12.82,24.45-19a11.28,11.28,0,0,1,6.27-2.2q160.23-.17,320.47-.09c.82,0,1.64.07,3.63.16-2.56,2.44-4.36,4.48-6.47,6.12q-20.67,16.14-41.49,32.08a8.94,8.94,0,0,1-4.1,1.31,36.23,36.23,0,0,1-5,.06q-409,0-817.92.08a15.5,15.5,0,0,1-10.37-3.66c-12.39-9.82-25.05-19.31-37.53-29-2.42-1.88-4.51-4.18-7.66-7.14h6.07q158.49,0,317,.12a15.45,15.45,0,0,1,8.48,3c8.82,6.47,17.33,13.36,26.7,20.67v-23.4Z"/><path class="cls-1" d="M287.53,545.59h730c-6,4.94-11.16,9.28-16.41,13.51-9.33,7.53-18.61,15.13-28.15,22.39a17,17,0,0,1-8,2.91c-4.11.48-8.32.12-12.49.12q-305.49,0-611,.08a15.74,15.74,0,0,1-10.85-3.75c-13-10.73-26.12-21.21-39.19-31.79C290.36,548.16,289.32,547.17,287.53,545.59Z"/><path class="cls-1" d="M578.9,785.94h41.64v74.74a26,26,0,0,0,3.09-2c17.6-16.95,38.81-22.3,62.53-19.28,36.56,4.66,61.65,24.67,73.22,59.21,12.59,37.56,6.46,72.74-20.7,102.65-12.82,14.12-29.48,21.74-48.53,24.2-27.51,3.56-51.42-3.22-70.83-23.68a10,10,0,0,0-1.76-1v21.34H578.9Zm39.57,146.47c0,1.83-.12,3.67,0,5.49.17,2,.55,4,.91,5.91,3.61,19.75,14.29,34.12,33.53,40.42,19.72,6.47,38.38,3.61,53.67-11.36,13.21-12.92,16.71-29.36,15-47.26-3.15-32.43-31.55-53.29-63.35-46.52C634.07,884.24,618.34,905.28,618.47,932.41Z"/><path class="cls-1" d="M966.42,952.5H828.24c2.06,10.25,7.37,18,15.1,24.15,17.2,13.73,53.11,16.23,70.18-4.48,1-1.16,2.65-2.41,4-2.42,14.64-.18,29.29-.11,44.56-.11a64.61,64.61,0,0,1-15.16,26.9c-15.67,17.25-35.37,26.57-58.45,29-30.93,3.24-58.14-5.23-80.26-27.2-47.41-47.07-28.55-129.47,34.49-151.69,35.68-12.57,76.52-4.11,101.2,24.72,13.77,16.09,21,34.9,22.42,55.91C966.88,935.48,966.42,943.75,966.42,952.5Zm-42.11-37.17c-3.42-18.43-18.63-37.57-55.62-34.94-19.9,1.42-40.38,18.43-41.13,34.94Z"/><path class="cls-1" d="M316.07,867.46V845.57h38.75V1022H316.11V999.86c-2.92,2.73-5,4.66-7.06,6.62-17.48,16.78-38.5,21.74-62.06,19.23-21.17-2.26-39.43-10.34-54.23-25.68s-22.38-33.89-24.4-54.93c-2.12-22.13,1.36-43.18,13.1-62.27,16.43-26.7,40.85-40.05,72-41.56,17.73-.86,34.58,1.75,48.9,13.24C306.94,858.22,311,862.65,316.07,867.46ZM315,935.1c-.5-4.11-.8-8.25-1.53-12.32-6.38-35.65-40.84-50.25-70.68-38.92-33,12.54-40.55,57.28-22.68,82.74,12.53,17.87,37.51,25.31,60.39,18.15C301.89,978.05,314.59,959.59,315,935.1Z"/><path class="cls-1" d="M501.63,845.45h42.51V1022H505v-16.23c-1.7,1.38-2.45,1.92-3.12,2.55-16.47,15.55-36.1,19.88-58.13,17.34-20.31-2.35-36.37-11.23-45.58-29.61-4.54-9.05-7.23-19.26-9.31-29.24-1.81-8.72-2.1-17.86-2.18-26.82-.25-29.49-.09-59-.09-88.49v-5.84h42.94c0,1.87,0,3.66,0,5.44,0,29-.28,58,.24,87a119.27,119.27,0,0,0,4,28.5c4.46,16.68,15.94,22.06,32.48,20.41,21.65-2.16,32.18-13.51,34.26-35.24.77-7.94,1.06-15.94,1.1-23.92.13-25.5.05-51,.05-76.49Z"/><path class="cls-1" d="M1163.51,883.35h-68.43v-38H1214.7c0,8.53-.56,17.18.15,25.73.74,8.94-2.37,15.65-7.83,22.55-22.54,28.46-44.53,57.34-66.72,86.07-.89,1.16-1.67,2.39-3,4.32h83.24v38.07H1085.59c0-9.14.47-18.27-.15-27.33-.51-7.48,1.9-13.11,6.48-18.93,22.86-29,45.31-58.41,67.91-87.67C1160.82,886.91,1161.8,885.61,1163.51,883.35Z"/><path class="cls-1" d="M118.36,860.57c10.42-14.4,23.65-21.44,41.62-19.24V881.5c-4.2.69-8.52,1.06-12.65,2.14-15.29,4-24.69,16.63-24.86,34.4-.31,32.64-.18,65.28-.23,97.92,0,1.95,0,3.91,0,6.15H79.78V845.57h38.58Z"/><path class="cls-1" d="M1036.68,1022.15H994.77V845.69h38.68v14.59c10.34-14.2,23.47-21.13,41.46-18.9,0,12.76.08,25.39-.14,38,0,1-1.93,2.39-3.19,2.71-3.36.85-6.95.87-10.27,1.85-14.13,4.16-22.21,14.57-23.74,30.55-.55,5.63-.84,11.3-.85,17-.08,28.17,0,56.34,0,84.5Z"/><path class="cls-1" d="M207.79,819.3V777.89H250.2V819.3Z"/><path class="cls-1" d="M316.92,819.39H274.87v-41.6h42.05Z"/><path class="cls-1" d="M1196.48,798.49a28.77,28.77,0,0,1,28.7-28.94,29.59,29.59,0,0,1,29.22,29.31,29.25,29.25,0,0,1-29.34,29C1206.82,827.83,1194.93,811.42,1196.48,798.49Zm28.93,24.07c13-.09,24-11,23.91-23.82s-11.61-24.22-24.51-24a24,24,0,0,0-23.37,24.31A23.48,23.48,0,0,0,1225.41,822.56Z"/><path d="M566.66,253.14c13.54-52.51,33.2-103.13,48-155.79"/><path class="cls-1" d="M1212.51,815.07V781.9c5.75.31,11.37.19,16.82,1.06,4,.65,6.62,3.73,7.28,8,.7,4.44-.24,8.29-4.29,10.88l-3.11,2,9.27,12c-4.58-.53-8.31-.06-11-1.54s-4.13-4.9-6.85-8.42v9.22Zm7.63-26.14v9c4.16-.34,8.74,1.18,9.2-4.63C1229.62,789.75,1226.2,788.28,1220.14,788.93Z"/></g></g></svg>