<svg xmlns="http://www.w3.org/2000/svg" viewBox="0 0 1140.73 248.58"><defs><style>.cls-1{fill:#fff;}</style></defs><title>schriftzug</title><g id="Ebene_2" data-name="Ebene 2"><g id="Ebene_1-2" data-name="Ebene 1"><path class="cls-1" d="M499.12,8.15h41.63V82.88a24.56,24.56,0,0,0,3.1-2c17.6-17,38.81-22.3,62.53-19.28,36.56,4.66,61.65,24.67,73.22,59.21,12.59,37.56,6.46,72.74-20.7,102.65-12.82,14.11-29.48,21.74-48.53,24.2-27.51,3.56-51.42-3.22-70.83-23.68a10,10,0,0,0-1.76-1v21.34H499.12Zm39.57,146.47c0,1.83-.13,3.67,0,5.49.17,2,.55,3.95.9,5.91,3.62,19.75,14.3,34.12,33.54,40.42,19.72,6.47,38.37,3.6,53.67-11.36,13.2-12.92,16.71-29.37,15-47.26-3.15-32.43-31.55-53.29-63.36-46.52C554.29,106.45,538.56,127.49,538.69,154.62Z"/><path class="cls-1" d="M886.64,174.71H748.46c2,10.25,7.37,18,15.09,24.15,17.21,13.73,53.12,16.23,70.19-4.48,1-1.16,2.65-2.41,4-2.42,14.64-.18,29.29-.11,44.56-.11a64.51,64.51,0,0,1-15.16,26.89c-15.67,17.25-35.37,26.57-58.45,29-30.93,3.24-58.14-5.23-80.26-27.19C681,173.47,699.89,91.07,762.93,68.85c35.68-12.57,76.52-4.11,101.2,24.72,13.77,16.08,21,34.9,22.42,55.91C887.1,157.69,886.64,166,886.64,174.71Zm-42.11-37.17C841.11,119.11,825.9,100,788.9,102.6,769,104,748.52,121,747.77,137.54Z"/><path class="cls-1" d="M236.29,89.67V67.78H275V244.23H236.33V222.07c-2.92,2.73-5,4.66-7.06,6.62-17.48,16.78-38.5,21.74-62.06,19.23C146,245.66,127.78,237.58,113,222.24s-22.38-33.89-24.4-54.93c-2.12-22.14,1.36-43.18,13.1-62.27,16.43-26.71,40.85-40.05,72-41.56,17.72-.87,34.58,1.75,48.89,13.24C227.16,80.43,231.22,84.86,236.29,89.67Zm-1.06,67.64c-.5-4.11-.8-8.25-1.53-12.32-6.38-35.66-40.84-50.25-70.68-38.92-33,12.54-40.55,57.28-22.69,82.74,12.54,17.87,37.52,25.31,60.4,18.14C222.11,200.26,234.81,181.8,235.23,157.31Z"/><path class="cls-1" d="M421.85,67.66h42.51V244.23H425.17V228c-1.69,1.38-2.44,1.92-3.11,2.55-16.47,15.55-36.1,19.88-58.13,17.33-20.32-2.34-36.37-11.22-45.58-29.6C313.81,209.23,311.12,199,309,189c-1.81-8.72-2.1-17.86-2.18-26.82-.25-29.49-.09-59-.09-88.49V67.89H349.7v5.44c0,29-.27,58,.25,87a119.76,119.76,0,0,0,4,28.5c4.47,16.67,15.95,22.06,32.49,20.41,21.64-2.16,32.18-13.52,34.26-35.24.76-7.94,1.06-15.94,1.1-23.92.13-25.5.05-51,.05-76.49Z"/><path class="cls-1" d="M1083.73,105.56H1015.3v-38h119.62c0,8.53-.56,17.18.15,25.73.74,8.94-2.37,15.65-7.83,22.55-22.54,28.46-44.53,57.34-66.72,86.07-.89,1.15-1.68,2.39-3,4.32h83.24v38.07H1005.81c0-9.14.47-18.27-.15-27.33-.51-7.49,1.9-13.11,6.48-18.93,22.86-29.05,45.31-58.42,67.91-87.67C1081,109.12,1082,107.82,1083.73,105.56Z"/><path class="cls-1" d="M38.58,82.78C49,68.38,62.23,61.34,80.2,63.54v40.17c-4.2.69-8.52,1.06-12.65,2.14-15.29,4-24.69,16.63-24.86,34.4-.31,32.64-.18,65.28-.23,97.91,0,2,0,3.92,0,6.16H0V67.78H38.58Z"/><path class="cls-1" d="M956.9,244.36H915V67.9h38.68V82.49c10.34-14.2,23.47-21.13,41.46-18.9,0,12.76.08,25.39-.14,38,0,1-1.93,2.39-3.19,2.71-3.36.85-7,.87-10.27,1.85-14.13,4.15-22.21,14.57-23.74,30.55-.55,5.63-.84,11.3-.85,16.95-.08,28.17,0,56.33,0,84.5Z"/><path class="cls-1" d="M128,41.51V.1h42.42V41.51Z"/><path class="cls-1" d="M237.13,41.6h-42V0h42Z"/></g></g></svg>